<svg id="medium" xmlns="http://www.w3.org/2000/svg" width="40.172" height="22.814" viewBox="0 0 40.172 22.814">
  <g id="Group_59" data-name="Group 59">
    <path id="Path_72" data-name="Path 72" d="M22.659,16.592A11.33,11.33,0,1,1,11.33,5.185,11.368,11.368,0,0,1,22.659,16.592" transform="translate(0 -5.185)" fill="#73a6fc"/>
    <path id="Path_73" data-name="Path 73" d="M25.524,16.323c0,5.93-2.536,10.738-5.664,10.738s-5.664-4.807-5.664-10.738S16.731,5.585,19.859,5.585s5.664,4.807,5.664,10.738" transform="translate(9.565 -4.915)" fill="#73a6fc"/>
    <path id="Path_74" data-name="Path 74" d="M25.6,15.873c0,5.313-.892,9.621-1.992,9.621s-1.992-4.307-1.992-9.621.892-9.621,1.992-9.621S25.6,10.56,25.6,15.873" transform="translate(14.569 -4.466)" fill="#73a6fc"/>
  </g>
</svg>
