<svg id="Group_28778" data-name="Group 28778" xmlns="http://www.w3.org/2000/svg" xmlns:xlink="http://www.w3.org/1999/xlink" width="17.884" height="16.004" viewBox="0 0 17.884 16.004">
  <defs>
    <clipPath id="clip-path">
      <rect id="Rectangle_9575" data-name="Rectangle 9575" width="17.884" height="16.004" fill="#829cb2"/>
    </clipPath>
  </defs>
  <g id="Group_28777" data-name="Group 28777" clip-path="url(#clip-path)">
    <path id="Path_19543" data-name="Path 19543" d="M17.743,3.748a2.374,2.374,0,0,0-1.482-1.474.2.2,0,0,1-.159-.19A2.4,2.4,0,0,0,13.772,0Q8.071,0,2.37,0A2.408,2.408,0,0,0,.035,2c-.008.045-.023.089-.035.133V13.871c.038.152.068.306.115.455A2.41,2.41,0,0,0,2.4,16q6.537,0,13.075,0a2.4,2.4,0,0,0,2.372-2.034.691.691,0,0,1,.031-.1V4.265c-.046-.173-.08-.35-.141-.517M1.173,2.094a1.285,1.285,0,0,1,1.2-.967c.046,0,.093,0,.14,0h11.1a1.3,1.3,0,0,1,1.281.793.9.9,0,0,1,.046.131.509.509,0,0,1,.006.087h-.227q-5.918,0-11.835,0a3.04,3.04,0,0,0-1.776.39,4.011,4.011,0,0,1,.059-.428m15.575,4.43h-.226c-1.106,0-2.212,0-3.318,0a2.581,2.581,0,0,0-.321,5.148c.266.021.535.021.8.021.949,0,1.9,0,2.846,0h.227v.188c0,.541,0,1.083,0,1.624a1.3,1.3,0,0,1-1.368,1.373q-6.452,0-12.905,0a1.294,1.294,0,0,1-1.359-1.363q0-4.445,0-8.889A1.291,1.291,0,0,1,2.484,3.264q6.461,0,12.923,0A1.288,1.288,0,0,1,16.758,4.6c.006.594,0,1.188,0,1.781,0,.04-.006.079-.011.144m0,1.141v2.887c-.065,0-.122.008-.178.008-1.129,0-2.258,0-3.386,0a1.452,1.452,0,0,1-.123-2.9c1.2-.017,2.409-.006,3.613-.007a.484.484,0,0,1,.075.013" transform="translate(0 0)" fill="#829cb2"/>
    <path id="Path_19544" data-name="Path 19544" d="M367.129,245.72a.585.585,0,1,1-.576-.6.588.588,0,0,1,.576.6" transform="translate(-353.176 -236.562)" fill="#829cb2"/>
  </g>
</svg>
