<svg id="manu_icon" data-name="manu icon" xmlns="http://www.w3.org/2000/svg" width="21" height="20" viewBox="0 0 21 20">
  <path id="bd4d8e4de0ef90b71280657e29071fe2" d="M18.9,17.009A1.063,1.063,0,0,1,17.8,18h-3.15a.98.98,0,0,1-1-.991v-3a.994.994,0,0,1,1-1.009H17.8a1.077,1.077,0,0,1,1.1,1.009v3ZM17.8,11h-3.15a3.044,3.044,0,0,0-3.1,3.009v3A3.029,3.029,0,0,0,14.653,20H17.8A3.112,3.112,0,0,0,21,17.009v-3A3.127,3.127,0,0,0,17.8,11ZM7.35,17.009a1.063,1.063,0,0,1-1.1.991H3.1a.98.98,0,0,1-1-.991v-3A.994.994,0,0,1,3.1,13h3.15a1.077,1.077,0,0,1,1.1,1.009v3ZM6.253,11H3.1A3.044,3.044,0,0,0,0,14.009v3A3.029,3.029,0,0,0,3.1,20h3.15a3.112,3.112,0,0,0,3.2-2.991v-3A3.127,3.127,0,0,0,6.253,11ZM18.9,6.009A1.063,1.063,0,0,1,17.8,7h-3.15a.98.98,0,0,1-1-.991v-3a.994.994,0,0,1,1-1.009H17.8a1.077,1.077,0,0,1,1.1,1.009ZM17.8,0h-3.15a3.044,3.044,0,0,0-3.1,3.009v3A3.029,3.029,0,0,0,14.653,9H17.8A3.112,3.112,0,0,0,21,6.009v-3A3.127,3.127,0,0,0,17.8,0ZM7.35,6.009A1.063,1.063,0,0,1,6.253,7H3.1a.98.98,0,0,1-1-.991v-3A.994.994,0,0,1,3.1,2h3.15a1.077,1.077,0,0,1,1.1,1.009v3ZM6.253,0H3.1A3.044,3.044,0,0,0,0,3.009v3A3.029,3.029,0,0,0,3.1,9h3.15a3.112,3.112,0,0,0,3.2-2.991v-3A3.127,3.127,0,0,0,6.253,0Z" fill-rule="evenodd"/>
</svg>
