<svg id="safe_lock" xmlns="http://www.w3.org/2000/svg" width="31.438" height="38.714" viewBox="0 0 31.438 38.714">
  <path id="Path_19470" data-name="Path 19470" d="M28.682,15.611v-5.45a9.062,9.062,0,1,0-18.125,0v5.45A8,8,0,0,0,3.9,23.478v8.348a8,8,0,0,0,7.988,7.987H27.349a8,8,0,0,0,7.988-7.987V23.478A7.991,7.991,0,0,0,28.682,15.611ZM19.619,3.439a6.73,6.73,0,0,1,6.723,6.723v5.33H12.9v-5.33A6.73,6.73,0,0,1,19.619,3.439ZM33,31.826a5.655,5.655,0,0,1-5.65,5.648H11.888a5.655,5.655,0,0,1-5.65-5.648V23.478a5.655,5.655,0,0,1,5.65-5.648H27.35A5.655,5.655,0,0,1,33,23.478Z" transform="translate(-3.899 -1.099)" fill="#fff"/>
  <path id="Path_19471" data-name="Path 19471" d="M20.135,19.456l-4.444,3.58-1.378-1.758a1.169,1.169,0,1,0-1.84,1.445l2.108,2.689a1.166,1.166,0,0,0,.786.44,1.139,1.139,0,0,0,.134.008,1.17,1.17,0,0,0,.733-.259L21.6,21.279a1.169,1.169,0,0,0-1.465-1.823Z" transform="translate(-1.409 4.314)" fill="#fff"/>
</svg>
