<svg xmlns="http://www.w3.org/2000/svg" width="21.529" height="17.615" viewBox="0 0 21.529 17.615">
  <g id="_91624948164a3fa7633b23809890df38" data-name="91624948164a3fa7633b23809890df38" transform="translate(-1 -3)">
    <path id="Path_19526" data-name="Path 19526" d="M20.572,7.893V5.936A2.936,2.936,0,0,0,17.636,3H3.936A2.936,2.936,0,0,0,1,5.936V17.679a2.936,2.936,0,0,0,2.936,2.936h13.7a2.936,2.936,0,0,0,2.936-2.936V15.722a1.957,1.957,0,0,0,1.957-1.957V9.85A1.957,1.957,0,0,0,20.572,7.893Zm-1.957,9.786a.979.979,0,0,1-.979.979H3.936a.979.979,0,0,1-.979-.979V5.936a.979.979,0,0,1,.979-.979h13.7a.979.979,0,0,1,.979.979V7.893H16.658a3.914,3.914,0,1,0,0,7.829h1.957Zm1.957-3.914H16.658a1.957,1.957,0,1,1,0-3.914h3.914Z" transform="translate(0 0)"/>
    <path id="Path_19527" data-name="Path 19527" d="M7.936,15H5.979a.979.979,0,1,0,0,1.957H7.936a.979.979,0,1,0,0-1.957Z" transform="translate(-0.086 -0.257)"/>
  </g>
</svg>
