<svg xmlns="http://www.w3.org/2000/svg" width="28.111" height="23" viewBox="0 0 28.111 23">
  <g id="_91624948164a3fa7633b23809890df38" data-name="91624948164a3fa7633b23809890df38" transform="translate(-1 -3)">
    <path id="Path_19526" data-name="Path 19526" d="M26.556,9.389V6.833A3.833,3.833,0,0,0,22.722,3H4.833A3.833,3.833,0,0,0,1,6.833V22.167A3.833,3.833,0,0,0,4.833,26H22.722a3.833,3.833,0,0,0,3.833-3.833V19.611a2.556,2.556,0,0,0,2.556-2.556V11.944A2.556,2.556,0,0,0,26.556,9.389ZM24,22.167a1.278,1.278,0,0,1-1.278,1.278H4.833a1.278,1.278,0,0,1-1.278-1.278V6.833A1.278,1.278,0,0,1,4.833,5.556H22.722A1.278,1.278,0,0,1,24,6.833V9.389H21.444a5.111,5.111,0,1,0,0,10.222H24Zm2.556-5.111H21.444a2.556,2.556,0,1,1,0-5.111h5.111Z" transform="translate(0)" fill="#fff"/>
    <path id="Path_19527" data-name="Path 19527" d="M8.833,15H6.278a1.278,1.278,0,1,0,0,2.556H8.833a1.278,1.278,0,1,0,0-2.556Z" transform="translate(1.111 3.333)" fill="#fff"/>
  </g>
</svg>
