<svg xmlns="http://www.w3.org/2000/svg" width="38" height="38" viewBox="0 0 38 38">
  <g id="Group_27713" data-name="Group 27713" transform="translate(-340 -1334)">
    <circle id="Ellipse_1420" data-name="Ellipse 1420" cx="19" cy="19" r="19" transform="translate(340 1334)" fill="#4da2ff"/>
    <path id="Sui_Symbol_Sea" d="M13.365,8.9a6.389,6.389,0,0,1-.039,8.009l-.077.1-.02-.121c-.018-.1-.038-.206-.062-.31-.448-1.967-1.906-3.653-4.307-5.019A5.068,5.068,0,0,1,6.068,8.272a4.729,4.729,0,0,1,.186-2.331A5.315,5.315,0,0,1,7.1,4.3l.934-1.142a.409.409,0,0,1,.634,0l4.7,5.742Zm1.477-1.141L8.583.11a.3.3,0,0,0-.463,0L1.861,7.762l-.02.026A8.346,8.346,0,1,0,16.7,13.011a8.294,8.294,0,0,0-1.841-5.222l-.02-.025ZM3.359,8.879l.559-.685.017.127c.013.1.03.2.049.3A7.034,7.034,0,0,0,7.8,13.334c1.881,1.071,2.976,2.3,3.291,3.65a4.692,4.692,0,0,1,.1,1.6l0,.03-.027.013a6.4,6.4,0,0,1-7.8-9.752Z" transform="translate(350.649 1342.325)" fill="#fff" fill-rule="evenodd"/>
  </g>
</svg>
