<svg xmlns="http://www.w3.org/2000/svg" width="3413" height="3413" viewBox="0 0 3413 3413">
  <g id="Group_28452" data-name="Group 28452" transform="translate(-1124 -1326.016)">
    <circle id="Ellipse_1427" data-name="Ellipse 1427" cx="1706.5" cy="1706.5" r="1706.5" transform="translate(1124 1326.016)"/>
    <g id="Group_28448" data-name="Group 28448" transform="translate(1982.929 2003.431)">
      <path id="Path_19787" data-name="Path 19787" d="M1695.933,889.535c10.166,414.151-325.3,801.005-737,844.68-212.911,22.778-417.163-11.295-594.307-140.435C147.009,1435.273,18.245,1221.8,2.056,949.963c-19.39-322.1,100.337-602.4,275.975-863.5,21.084-31.438,33.7-79.065,95.819-59.3C205.931,257.2,78.3,500.609,50.813,778.655,136.467,749.288,219.673,712.015,306.833,693c161.9-35.2,317.579-3.012,465.167,69.464,119.351,58.358,235.125,124.81,369.347,145.706,165.284,25.79,320.779,1.883,466.485-82.642,28.99-16.754,37.085-34.826,32.755-67.582C1611.974,540.9,1528.579,345.3,1411.675,162.7c-28.614-44.615-59.3-87.913-89.042-131.964,2.259-4.33,4.33-8.66,6.589-12.989,19.578,9.789,46.5,14.5,57.981,30.308,181.85,251.314,301.012,526.348,308.73,841.48" transform="translate(0 316.332)" fill="#fff"/>
      <path id="Path_19794" data-name="Path 19794" d="M905.965,166.554H21C60.155,113.279,95.17,63.769,132.631,16.142,139.785,7.106,156.163.705,168.4.705q293.953-1.412,587.906,0c13.366.188,31.25,7.342,39.156,17.507,36.9,46.31,71.158,94.878,110.5,148.341" transform="translate(374.312 0)" fill="#fff"/>
    </g>
  </g>
</svg>
