<svg xmlns="http://www.w3.org/2000/svg" xmlns:xlink="http://www.w3.org/1999/xlink" width="46" height="46" viewBox="0 0 46 46">
  <defs>
    <linearGradient id="linear-gradient" x1="0.5" x2="0.5" y2="1" gradientUnits="objectBoundingBox">
      <stop offset="0" stop-color="#1d97ff"/>
      <stop offset="1" stop-color="#62e1ff"/>
    </linearGradient>
  </defs>
  <g id="Group_27511" data-name="Group 27511" transform="translate(-268.45 -189.45)">
    <circle id="Ellipse_1388" data-name="Ellipse 1388" cx="23" cy="23" r="23" transform="translate(268.45 189.45)" fill="#fff"/>
    <path id="icons8-lock" d="M17.143,2a8.493,8.493,0,0,0-8.364,8.581v2.452H6.39A2.421,2.421,0,0,0,4,15.485V30.2a2.421,2.421,0,0,0,2.39,2.452H27.9a2.421,2.421,0,0,0,2.39-2.452V15.485a2.421,2.421,0,0,0-2.39-2.452h-2.39V10.581a8.458,8.458,0,0,0-7.939-8.493A1.169,1.169,0,0,0,17.143,2Zm0,2.452a6.034,6.034,0,0,1,5.974,6.13v2.452H11.169V10.581A6.034,6.034,0,0,1,17.143,4.452Z" transform="translate(273.477 195.517)" fill="url(#linear-gradient)"/>
    <rect id="Rectangle_8814" data-name="Rectangle 8814" width="10.422" height="4.861" rx="2" transform="translate(285.056 215.986)" fill="url(#linear-gradient)"/>
  </g>
</svg>
