<svg xmlns="http://www.w3.org/2000/svg" xmlns:xlink="http://www.w3.org/1999/xlink" width="75" height="75" viewBox="0 0 75 75">
  <defs>
    <clipPath id="clip-path">
      <rect id="Rectangle_186" data-name="Rectangle 186" width="61.034" height="23.519" fill="#3d5060"/>
    </clipPath>
  </defs>
  <g id="Group_20296" data-name="Group 20296" transform="translate(10979 -9903)">
    <circle id="Ellipse_1385" data-name="Ellipse 1385" cx="37.5" cy="37.5" r="37.5" transform="translate(-10979 9903)" fill="#d8e2eb"/>
    <g id="Group_20292" data-name="Group 20292" transform="translate(-10972.018 9928.74)">
      <g id="Group_159" data-name="Group 159" clip-path="url(#clip-path)">
        <path id="Path_111" data-name="Path 111" d="M0,13.779c0-2-.007-4.009,0-6.013a7.429,7.429,0,0,1,3.277-6.33A7.708,7.708,0,0,1,14.506,4.065a6.976,6.976,0,0,1,.9,3.454c-.012,2.667-.031,5.335.008,8A3.682,3.682,0,0,0,17.7,19.11a3.792,3.792,0,0,0,3.734-.563A3.7,3.7,0,0,0,22.774,15.6c-.02-2.548.027-5.1-.013-7.644A7.744,7.744,0,0,1,28.172.392,7.415,7.415,0,0,1,35.7,2.063,7.633,7.633,0,0,1,38.232,8.1c-.012,2.48-.006,4.96,0,7.44a3.691,3.691,0,0,0,1.752,3.3,3.643,3.643,0,0,0,5.208-1.552,4.381,4.381,0,0,0,.318-1.569c.032-2.548-.011-5.1.021-7.644a7.688,7.688,0,0,1,4.6-7.369A7.1,7.1,0,0,1,54.9.209a7.489,7.489,0,0,1,5.41,4.357,7.26,7.26,0,0,1,.681,2.79c.069,4.517.034,9.037.03,13.555a2.029,2.029,0,0,1-1.671,2.02,1.941,1.941,0,0,1-2.313-1.563,4.761,4.761,0,0,1-.113-1.058q-.011-6.268-.006-12.537a3.4,3.4,0,0,0-2.138-3.338,3.573,3.573,0,0,0-4.769,1.755,4.763,4.763,0,0,0-.351,1.871c-.038,2.581.054,5.166-.034,7.745a7.45,7.45,0,0,1-4.467,6.91,7.324,7.324,0,0,1-7.759-.7,7.4,7.4,0,0,1-3.245-6.26c-.03-2.65-.043-5.3.006-7.95a3.78,3.78,0,0,0-2.555-3.55,3.668,3.668,0,0,0-4.194,1.526,4.408,4.408,0,0,0-.6,2.64c.015.377.286.4.575.42A13.858,13.858,0,0,1,29.515,9a2.015,2.015,0,0,1,1.453,2.273,2.172,2.172,0,0,1-1.956,1.77c-.527.017-1.055.025-1.581,0-.453-.019-.633.138-.629.615a25.024,25.024,0,0,1-.078,3.153A7.208,7.208,0,0,1,23.1,22.353a7.376,7.376,0,0,1-7.534.255,7.169,7.169,0,0,1-3.873-4.8,11.185,11.185,0,0,1-.279-2.411c-.035-2.548.012-5.1-.027-7.644A3.527,3.527,0,0,0,9.367,4.508a3.625,3.625,0,0,0-4.592,1.08,3.787,3.787,0,0,0-.744,2.33c-.007,4.281-.015,8.561.006,12.842a2.113,2.113,0,0,1-1.188,2.026,2.021,2.021,0,0,1-2.8-1.417A6.128,6.128,0,0,1,0,20.557Q0,17.168,0,13.779" transform="translate(0 0)" fill="#3d5060"/>
      </g>
    </g>
  </g>
</svg>
