<svg id="USDC" xmlns="http://www.w3.org/2000/svg" width="200" height="200" viewBox="0 0 200 200">
  <path id="Path_854" data-name="Path 854" d="M100,200A100,100,0,1,0,0,100,99.76,99.76,0,0,0,100,200Z" fill="#2775ca"/>
  <path id="Path_855" data-name="Path 855" d="M772.5,573.33c0-14.583-8.75-19.583-26.25-21.666-12.5-1.667-15-5-15-10.834s4.167-9.583,12.5-9.583c7.5,0,11.667,2.5,13.75,8.75a3.134,3.134,0,0,0,2.917,2.083h6.666A2.848,2.848,0,0,0,770,539.164v-.417a20.816,20.816,0,0,0-18.75-17.083v-10c0-1.667-1.25-2.917-3.333-3.334h-6.25c-1.667,0-2.917,1.25-3.334,3.334v9.583c-12.5,1.667-20.416,10-20.416,20.417,0,13.75,8.333,19.166,25.833,21.25C755.42,565,759.17,567.5,759.17,574.164s-5.834,11.25-13.75,11.25c-10.834,0-14.584-4.584-15.834-10.834a3.043,3.043,0,0,0-2.916-2.5h-7.084A2.848,2.848,0,0,0,716.67,575v.417c1.666,10.416,8.333,17.916,22.083,20v10c0,1.666,1.25,2.916,3.333,3.333h6.25c1.667,0,2.917-1.25,3.334-3.333v-10C764.17,593.33,772.5,584.58,772.5,573.33Z" transform="translate(-645.003 -457.497)"/>
  <path id="Path_856" data-name="Path 856" d="M301.919,422.086a62.35,62.35,0,0,1,0-117.083,4.182,4.182,0,0,0,2.5-4.167V295a3.167,3.167,0,0,0-2.5-3.333,2.509,2.509,0,0,0-1.667.416,74.98,74.98,0,0,0,0,142.917,2.533,2.533,0,0,0,3.75-1.667c.417-.416.417-.833.417-1.666v-5.834C304.419,424.586,303.169,422.92,301.919,422.086Zm44.167-130a2.533,2.533,0,0,0-3.75,1.667c-.417.417-.417.833-.417,1.667v5.833a5.527,5.527,0,0,0,2.5,4.167,62.35,62.35,0,0,1,0,117.083,4.182,4.182,0,0,0-2.5,4.167V432.5a3.167,3.167,0,0,0,2.5,3.333,2.509,2.509,0,0,0,1.667-.416,75.3,75.3,0,0,0,0-143.334Z" transform="translate(-223.169 -262.503)"/>
</svg>
