<svg id="USDT" xmlns="http://www.w3.org/2000/svg" width="381.74" height="381.74" viewBox="0 0 381.74 381.74">
  <path id="Path_43-2" data-name="Path 43-2" d="M190.857,0C296.288,0,381.745,85.461,381.74,190.879S296.279,381.745,190.861,381.74,0,296.279,0,190.861C0,85.464,85.442.012,190.848,0" fill="#53ae94"/>
  <path id="Path_44" data-name="Path 44" d="M197.252,143.974v-28.4h64.924V72.32H85.375v43.257h64.937v28.371c-52.775,2.425-92.453,12.876-92.453,25.389s39.691,22.977,92.453,25.415V285.7h46.952V194.752c52.671-2.438,92.271-12.876,92.271-25.389s-39.6-22.951-92.271-25.389m0,43.062h0c-1.3.078-8.143.493-23.34.493-12.111,0-20.63-.35-23.638-.506h0c-46.68-2.062-81.431-10.192-81.431-19.891s34.816-17.829,81.431-19.891v31.7c3.047.207,11.787.726,23.846.726,14.458,0,21.758-.609,23.094-.726V147.268c46.576,2.075,81.249,10.218,81.249,19.891s-34.738,17.8-81.249,19.891" transform="translate(17.165 21.455)" fill="#fff"/>
</svg>
