<svg id="Telegram" xmlns="http://www.w3.org/2000/svg" width="31.778" height="26.26" viewBox="0 0 31.778 26.26">
  <path id="Layer_2" d="M31.582,10.957C27.39,12.693,9.415,20.138,4.448,22.167c-3.331,1.3-1.381,2.518-1.381,2.518s2.843.975,5.28,1.706a4.773,4.773,0,0,0,3.737-.081l11.455-7.718c4.062-2.762,3.087-.487,2.112.487-2.112,2.112-5.606,5.443-8.53,8.124a1.539,1.539,0,0,0-.081,2.6c2.112,1.787,7.88,5.443,8.205,5.687,1.716,1.215,5.092,2.964,5.606-.731L32.882,22c.65-4.306,1.3-8.286,1.381-9.424C34.507,9.819,31.582,10.957,31.582,10.957Z" transform="translate(-2.5 -10.725)"/>
</svg>
